<?xml version="1.0" standalone="no"?>
<!DOCTYPE svg PUBLIC "-//W3C//DTD SVG 20010904//EN"
 "http://www.w3.org/TR/2001/REC-SVG-20010904/DTD/svg10.dtd">
<svg version="1.0" xmlns="http://www.w3.org/2000/svg"
 width="1074.000000pt" height="1074.000000pt" viewBox="0 0 1074.000000 1074.000000"
 preserveAspectRatio="xMidYMid meet">
<metadata>
Created by potrace 1.14, written by Peter Selinger 2001-2017
</metadata>
<g transform="translate(0.000000,1074.000000) scale(0.100000,-0.100000)"
fill="#000000" stroke="none">
<path d="M4875 9738 c-45 -16 -81 -45 -103 -81 -18 -29 -54 -164 -67 -247 -3
-19 -8 -42 -10 -50 -5 -17 -53 -324 -60 -385 -3 -22 -9 -69 -15 -105 -5 -36
-12 -85 -14 -110 -15 -129 -19 -158 -25 -195 l-7 -40 -94 -33 c-52 -18 -114
-42 -137 -53 -24 -10 -46 -19 -49 -19 -4 0 -58 -25 -122 -55 l-115 -55 -56 42
c-47 35 -161 124 -221 171 -8 7 -44 35 -80 62 -69 53 -83 64 -103 80 -89 76
-366 280 -399 293 -94 40 -177 4 -378 -167 -171 -146 -557 -538 -710 -720
-115 -139 -143 -189 -141 -254 1 -56 27 -100 132 -227 136 -166 330 -415 439
-564 l94 -129 -36 -71 c-33 -63 -61 -123 -103 -221 -22 -50 -75 -201 -75 -213
0 -16 -10 -20 -81 -31 -35 -6 -75 -13 -89 -16 -14 -3 -47 -7 -75 -10 -27 -4
-61 -8 -75 -10 -31 -5 -213 -33 -260 -40 -19 -3 -48 -7 -65 -10 -16 -3 -48 -7
-70 -10 -22 -3 -94 -15 -160 -25 -66 -10 -140 -22 -164 -25 -82 -12 -122 -41
-162 -116 l-23 -44 -1 -685 0 -685 23 -44 c46 -87 90 -109 252 -126 36 -4 67
-8 70 -10 3 -2 28 -6 55 -9 28 -4 77 -11 110 -16 33 -5 78 -11 100 -15 22 -3
51 -7 65 -10 14 -2 48 -6 75 -10 28 -3 57 -8 65 -10 8 -2 36 -6 62 -9 26 -3
58 -8 70 -10 27 -6 84 -15 148 -22 117 -14 111 -8 151 -124 19 -58 39 -114 44
-125 4 -11 19 -47 33 -80 13 -33 46 -103 72 -157 l49 -96 -47 -65 c-26 -35
-60 -82 -77 -103 -445 -570 -498 -640 -512 -694 -19 -68 -1 -145 48 -207 17
-21 45 -56 62 -78 87 -109 403 -435 573 -592 17 -15 75 -69 130 -120 173 -160
188 -174 219 -191 36 -20 139 -21 175 -2 23 12 327 240 662 497 218 166 182
154 296 100 53 -25 147 -64 207 -87 61 -23 119 -46 130 -50 11 -4 35 -14 53
-20 18 -7 31 -18 30 -24 -2 -10 7 -73 18 -129 2 -12 6 -42 9 -67 3 -25 7 -56
10 -70 11 -56 16 -91 35 -225 11 -77 22 -151 24 -165 10 -55 38 -237 42 -270
10 -82 27 -156 40 -182 17 -33 67 -71 113 -87 48 -16 1344 -16 1408 0 58 15
106 63 127 126 16 50 62 264 71 330 3 21 7 48 10 61 3 20 15 99 30 205 6 40
16 108 20 137 2 14 7 54 11 90 4 36 8 67 9 70 2 7 17 158 17 167 0 18 22 33
71 49 92 30 245 93 350 144 l102 49 31 -22 c17 -12 46 -34 65 -49 19 -15 91
-71 160 -125 69 -54 141 -110 160 -125 19 -15 108 -86 199 -158 169 -134 245
-180 308 -186 94 -10 272 126 612 466 330 329 512 536 547 619 17 41 12 114
-11 158 -12 24 -108 146 -279 357 -17 22 -54 69 -82 105 -27 36 -52 68 -55 71
-3 3 -52 68 -109 145 -58 77 -108 145 -112 150 -4 6 6 38 22 70 40 79 130 290
165 387 l28 77 46 7 c25 3 83 12 130 19 47 8 105 17 130 20 43 6 60 8 125 19
17 3 50 8 75 11 25 3 70 10 100 15 30 5 75 12 100 15 25 4 86 13 135 20 50 8
113 17 140 20 94 11 128 25 172 71 24 25 47 60 53 83 7 27 10 260 8 725 l-3
684 -30 43 c-40 58 -76 76 -176 93 -73 12 -107 18 -204 32 -11 1 -64 10 -119
19 -54 9 -117 18 -140 21 -22 3 -95 14 -161 24 -66 11 -138 22 -160 25 -22 3
-51 7 -65 10 -43 8 -104 17 -124 18 -23 2 -22 0 -86 172 -29 77 -79 196 -112
265 -32 68 -57 129 -55 135 4 10 151 208 176 236 71 82 413 532 439 578 19 33
26 110 13 156 -25 94 -339 438 -777 851 -195 184 -214 200 -263 223 -45 20
-124 21 -161 1 -11 -6 -138 -100 -282 -209 -145 -109 -335 -252 -422 -318
l-160 -120 -96 46 c-129 62 -181 83 -335 137 -38 13 -73 28 -77 32 -4 4 -12
37 -17 72 -5 36 -17 112 -26 170 -9 58 -18 123 -21 144 -2 21 -6 42 -8 45 -2
3 -7 31 -10 62 -4 31 -9 67 -11 80 -3 13 -7 42 -10 64 -3 22 -7 49 -9 60 -2
11 -7 43 -10 70 -16 114 -48 302 -57 331 -12 40 -63 87 -115 107 -37 14 -122
16 -715 16 -446 -1 -684 -4 -704 -11z m935 -2018 c0 -3 15 -6 33 -7 37 -1 112
-10 112 -13 0 -2 63 -11 93 -13 12 0 22 -4 22 -8 0 -3 11 -7 25 -8 47 -3 55
-4 55 -11 0 -4 10 -7 23 -6 12 1 33 -4 47 -11 14 -7 33 -13 43 -13 10 0 31 -7
47 -15 17 -9 31 -15 32 -14 4 3 50 -11 73 -21 21 -10 76 -32 85 -35 8 -2 101
-45 150 -70 85 -42 171 -93 181 -108 3 -5 9 -8 12 -8 11 1 107 -62 107 -70 0
-4 8 -10 19 -14 10 -3 31 -17 47 -31 16 -14 54 -45 84 -69 124 -99 429 -442
414 -467 -3 -4 -1 -8 4 -8 20 0 161 -247 216 -380 65 -157 106 -284 97 -299
-2 -2 1 -7 6 -10 11 -7 48 -172 63 -276 15 -105 27 -280 25 -365 -3 -97 -16
-283 -20 -291 -2 -3 -6 -27 -10 -53 -14 -122 -90 -397 -142 -516 -40 -92 -124
-263 -149 -301 -16 -24 -27 -47 -26 -51 1 -5 -2 -8 -7 -8 -5 0 -13 -9 -16 -20
-3 -11 -12 -26 -18 -33 -7 -7 -28 -35 -47 -62 -43 -63 -39 -57 -107 -140 -69
-84 -266 -280 -305 -303 -16 -9 -28 -19 -28 -23 0 -4 -12 -15 -27 -24 -25 -17
-26 -17 -19 1 17 42 47 153 56 209 5 33 13 71 16 85 3 14 8 102 9 195 4 167
-2 236 -32 378 -3 17 -7 42 -7 54 -1 11 -4 19 -8 16 -5 -2 -8 4 -8 13 0 10 -9
45 -21 78 -33 97 -47 131 -94 226 -32 63 -126 216 -158 256 -42 52 -170 187
-213 224 -166 143 -425 278 -603 315 -9 2 -38 8 -65 15 -59 13 -144 23 -203
24 l-43 1 0 740 0 740 50 27 c141 78 142 283 2 365 -66 39 -148 39 -214 0
-140 -82 -139 -287 2 -365 l50 -27 0 -737 c0 -696 -1 -738 -17 -739 -22 -2
-43 -4 -108 -13 -181 -23 -363 -85 -540 -184 -67 -37 -175 -114 -175 -124 0
-4 -5 -8 -10 -8 -15 0 -112 -90 -191 -177 -90 -100 -192 -258 -251 -388 -39
-88 -95 -247 -103 -298 -3 -18 -10 -48 -15 -67 -31 -125 -38 -376 -16 -530 13
-88 28 -164 46 -224 11 -38 18 -72 15 -74 -11 -11 -276 241 -350 333 -16 21
-35 43 -40 49 -6 6 -33 43 -61 81 -195 267 -324 555 -394 880 -60 274 -71 590
-30 835 6 36 13 79 16 95 37 223 137 498 257 710 40 70 143 230 162 252 5 6
21 26 35 44 49 65 137 164 163 184 15 11 27 24 28 30 0 5 30 35 65 65 35 30
81 70 102 89 56 50 88 71 97 63 5 -4 5 -2 2 4 -3 6 8 19 26 29 18 10 34 21 37
25 7 8 100 70 106 70 2 0 22 11 43 24 21 14 42 22 45 19 3 -4 6 -1 6 5 0 11
67 47 83 44 4 -1 7 3 7 8 0 5 3 9 8 8 4 0 24 6 44 15 21 10 42 17 48 17 5 0
10 3 10 8 0 7 63 32 88 34 6 1 12 6 12 11 0 6 3 8 6 4 4 -3 19 0 35 9 16 8 29
12 29 8 0 -4 6 -1 13 5 8 6 24 13 38 15 13 3 24 5 24 6 0 2 38 11 53 12 6 1
12 5 12 9 0 4 9 6 20 4 11 -2 22 0 25 5 3 4 16 7 30 5 14 -1 25 1 25 5 0 4 6
7 13 7 6 0 26 4 42 8 17 3 42 7 58 8 15 0 27 3 27 7 0 3 15 6 33 7 47 2 151
13 154 17 6 6 403 2 403 -4z m-937 -2829 c23 -11 49 -26 57 -33 36 -31 79 -96
84 -128 3 -19 8 -47 10 -62 3 -15 0 -44 -7 -65 -6 -21 -11 -41 -11 -45 -1 -5
-17 -28 -36 -53 -150 -192 -456 -83 -453 161 3 181 193 301 356 225z m1602 0
c123 -55 183 -211 127 -331 -75 -164 -281 -205 -410 -80 -83 81 -101 207 -41
305 70 116 203 160 324 106z"/>
<path d="M5093 7355 c-11 -29 12 -36 113 -33 91 3 99 5 99 23 0 19 -8 20 -103
23 -86 2 -103 0 -109 -13z"/>
<path d="M5813 7355 c-11 -29 12 -36 118 -33 96 3 104 4 104 23 0 19 -8 20
-108 23 -91 2 -108 0 -114 -13z"/>
<path d="M5265 7127 c-65 -38 -90 -58 -90 -72 0 -33 26 -27 120 28 63 38 90
59 90 73 0 33 -27 26 -120 -29z"/>
<path d="M5754 7165 c-9 -21 -1 -28 83 -77 106 -61 110 -62 109 -30 -1 23 -14
35 -80 75 -85 50 -103 56 -112 32z"/>
</g>
</svg>
